<?xml version="1.0" standalone="no"?>
<!DOCTYPE svg PUBLIC "-//W3C//DTD SVG 20010904//EN"
 "http://www.w3.org/TR/2001/REC-SVG-20010904/DTD/svg10.dtd">
<svg version="1.0" xmlns="http://www.w3.org/2000/svg"
 width="640.000000pt" height="640.000000pt" viewBox="0 0 640.000000 640.000000"
 preserveAspectRatio="xMidYMid meet">

<g transform="translate(0.000000,640.000000) scale(0.100000,-0.100000)"
fill="#000000" stroke="none">
<path d="M2878 5055 c-2 -1 -59 -5 -128 -9 -69 -3 -141 -8 -160 -11 -140 -21
-191 -32 -310 -66 -229 -64 -435 -159 -620 -287 -735 -505 -1088 -1371 -914
-2240 35 -174 93 -343 178 -517 116 -236 238 -408 411 -580 676 -675 1694
-836 2540 -402 383 197 723 531 924 909 117 219 208 503 236 736 3 24 8 54 11
68 l6 24 -100 0 c-67 0 -114 -5 -143 -16 -59 -22 -190 -22 -248 -1 -36 14 -86
17 -301 17 l-257 0 -6 -53 c-20 -166 -119 -270 -283 -297 -197 -32 -366 94
-381 284 l-6 65 -36 5 c-20 3 -63 8 -96 11 -256 28 -517 220 -644 473 -94 186
-114 415 -56 616 44 153 111 266 220 377 151 152 337 237 558 255 l84 7 26 52
c40 82 94 162 163 240 34 40 61 76 58 79 -2 3 -1 4 2 2 3 -2 13 2 22 9 10 8
28 23 42 34 l25 19 -20 23 c-11 12 -13 18 -5 13 8 -5 18 -9 22 -9 3 0 10 -4
15 -9 5 -5 2 -6 -6 -1 -10 6 -12 4 -7 -4 6 -9 11 -9 23 1 13 10 9 14 -22 25
-34 11 -39 11 -51 -5 -7 -9 -14 -13 -14 -8 0 5 -11 -1 -24 -13 l-24 -23 -17
32 c-9 17 -19 30 -22 27 -2 -3 0 -15 7 -26 6 -12 8 -21 4 -21 -3 0 0 -8 7 -17
13 -16 12 -17 -3 -5 -10 8 -17 17 -16 20 4 14 -14 52 -22 47 -4 -3 -6 5 -2 17
5 21 6 21 13 2 7 -19 8 -19 9 1 l1 20 9 -20 c7 -15 9 -16 9 -4 1 19 -18 36
-39 34 -8 0 -18 3 -21 8 -3 5 -9 1 -12 -8 -5 -10 -3 -14 5 -9 7 5 8 3 4 -5 -9
-14 12 -73 23 -66 4 2 8 -2 8 -10 0 -23 -18 -5 -37 37 -16 37 -19 38 -25 19
-6 -21 -7 -22 -21 -4 -14 17 -15 16 -9 -7 5 -19 4 -22 -4 -10 -6 8 -8 23 -5
34 4 12 2 16 -5 12 -7 -5 -8 -1 -4 10 5 14 8 12 20 -10 17 -32 27 -34 18 -3
-4 15 -3 18 3 8 7 -9 12 -10 16 -2 11 17 -3 34 -19 21 -9 -7 -16 -6 -25 5 -7
8 -16 13 -20 10 -5 -3 -11 -1 -14 4 -4 5 -17 8 -31 6 -14 -1 -28 2 -31 6 -3 5
-9 9 -14 9 -6 0 0 -17 11 -37 15 -27 17 -33 5 -24 -9 7 -16 19 -16 27 0 14
-41 47 -49 39 -2 -3 4 -15 15 -28 10 -13 7 -10 -8 5 -29 29 -45 37 -32 16 5
-8 1 -7 -10 2 -24 19 -60 25 -50 8 5 -8 0 -7 -11 2 -19 16 -26 17 -160 25 -49
3 -100 7 -112 9 -13 2 -24 2 -25 1z m401 -89 c17 -19 20 -26 9 -32 -7 -4 -10
-3 -5 1 4 5 -3 19 -15 32 -12 13 -19 23 -16 23 2 0 15 -11 27 -24z m98 -17
c-4 -27 -23 -44 -32 -30 -3 6 -1 10 5 9 7 -2 14 7 16 19 2 13 1 22 -4 22 -16
-3 -23 2 -17 11 10 17 35 -9 32 -31z m39 29 c4 4 2 -1 -5 -10 -7 -10 -11 -25
-7 -33 3 -10 2 -13 -5 -10 -5 4 -9 14 -7 23 1 10 -2 24 -7 32 -7 12 -6 13 7 3
8 -7 19 -9 24 -5z m97 -43 c-3 -9 -8 -14 -10 -11 -3 3 -2 9 2 15 9 16 15 13 8
-4z m-88 -85 c10 -11 16 -20 13 -20 -3 0 -13 9 -23 20 -10 11 -16 20 -13 20 3
0 13 -9 23 -20z m80 0 c10 -11 16 -20 13 -20 -3 0 -13 9 -23 20 -10 11 -16 20
-13 20 3 0 13 -9 23 -20z m-20 -32 c5 4 5 1 1 -6 -6 -10 -11 -10 -22 -1 -8 6
-14 14 -14 16 0 3 6 0 13 -6 8 -6 18 -7 22 -3z"/>
<path d="M3590 4923 c0 -14 -2 -15 -9 -5 -14 23 -21 -11 -7 -36 12 -23 12 -23
30 -3 10 11 16 28 13 38 -4 14 -5 13 -6 -5 0 -13 -5 -21 -10 -18 -5 3 -7 15
-4 26 3 11 3 20 -1 20 -3 0 -6 -8 -6 -17z m1 -30 c13 -16 12 -17 -3 -4 -17 13
-22 21 -14 21 2 0 10 -8 17 -17z"/>
<path d="M3631 4904 c0 -11 3 -14 6 -6 3 7 2 16 -1 19 -3 4 -6 -2 -5 -13z"/>
</g>
</svg>
