<svg xmlns="http://www.w3.org/2000/svg" width="50" height="50" viewBox="0 0 50 50">
  <g id="_01d" data-name="01d" transform="translate(-319 -1483.5)">
    <rect id="Rectangle_11388" data-name="Rectangle 11388" width="50" height="50" transform="translate(319 1483.5)" fill="#fff" opacity="0"/>
    <g id="Group_53114" data-name="Group 53114" transform="translate(323.948 1488.448)">
      <g id="Group_655" data-name="Group 655" transform="translate(28.875 28.874)">
        <path id="Path_565" data-name="Path 565" d="M99.169,397.454a1.725,1.725,0,0,1-1.223-.506l-2.406-2.406a1.728,1.728,0,1,1,2.444-2.443l2.4,2.406a1.727,1.727,0,0,1-1.22,2.948Z" transform="translate(-95.033 -391.592)" fill="#f6921e"/>
      </g>
      <g id="Group_656" data-name="Group 656" transform="translate(8.678 8.68)">
        <path id="Path_566" data-name="Path 566" d="M92.156,377.343a11.371,11.371,0,1,0,8.039,3.329,11.371,11.371,0,0,0-8.039-3.329Z" transform="translate(-80.782 -377.343)" fill="#f6921e"/>
      </g>
      <g id="Group_657" data-name="Group 657" transform="translate(5.368 5.366)">
        <path id="Path_567" data-name="Path 567" d="M82.574,380.863a1.719,1.719,0,0,1-1.22-.507l-2.4-2.406a1.726,1.726,0,1,1,2.44-2.442l2.406,2.406a1.728,1.728,0,0,1-1.224,2.948Z" transform="translate(-78.446 -375.003)" fill="#f6921e"/>
      </g>
      <g id="Group_658" data-name="Group 658" transform="translate(5.37 28.879)">
        <path id="Path_568" data-name="Path 568" d="M80.174,397.455a1.727,1.727,0,0,1-1.22-2.948l2.4-2.4a1.727,1.727,0,1,1,2.444,2.442l-2.407,2.406a1.723,1.723,0,0,1-1.223.506Z" transform="translate(-78.448 -391.598)" fill="#f6921e"/>
      </g>
      <g id="Group_659" data-name="Group 659" transform="translate(28.879 5.364)">
        <path id="Path_569" data-name="Path 569" d="M96.765,380.862a1.728,1.728,0,0,1-1.222-2.948l2.406-2.406a1.727,1.727,0,0,1,2.443,2.442l-2.4,2.406a1.725,1.725,0,0,1-1.223.507Z" transform="translate(-95.038 -375.001)" fill="#f6921e"/>
      </g>
      <g id="Group_660" data-name="Group 660" transform="translate(18.324 33.251)">
        <path id="Path_570" data-name="Path 570" d="M89.316,401.537a1.728,1.728,0,0,1-1.727-1.727v-3.4a1.727,1.727,0,1,1,3.453,0v3.4a1.725,1.725,0,0,1-1.726,1.727Z" transform="translate(-87.589 -394.684)" fill="#f6921e"/>
      </g>
      <g id="Group_661" data-name="Group 661" transform="translate(18.324 0)">
        <path id="Path_571" data-name="Path 571" d="M89.316,378.069a1.728,1.728,0,0,1-1.727-1.727v-3.4a1.727,1.727,0,1,1,3.453,0v3.4a1.725,1.725,0,0,1-1.726,1.727Z" transform="translate(-87.589 -371.217)" fill="#f6921e"/>
      </g>
      <g id="Group_662" data-name="Group 662" transform="translate(-0.001 18.324)">
        <path id="Path_572" data-name="Path 572" d="M79.782,387.6h-3.4a1.728,1.728,0,1,1,0-3.455h3.4a1.727,1.727,0,1,1,0,3.455Z" transform="translate(-74.656 -384.148)" fill="#f6921e"/>
      </g>
      <g id="Group_663" data-name="Group 663" transform="translate(33.251 18.324)">
        <path id="Path_573" data-name="Path 573" d="M103.25,387.6h-3.4a1.728,1.728,0,1,1,0-3.455h3.4a1.727,1.727,0,1,1,0,3.455Z" transform="translate(-98.125 -384.148)" fill="#f6921e"/>
      </g>
    </g>
  </g>
</svg>
