<svg xmlns="http://www.w3.org/2000/svg" width="50" height="50" viewBox="0 0 50 50">
  <g id="_02d" data-name="02d" transform="translate(-319 -1593.5)">
    <rect id="Rectangle_11389" data-name="Rectangle 11389" width="50" height="50" transform="translate(319 1593.5)" fill="#fff" opacity="0"/>
    <g id="Group_53123" data-name="Group 53123" transform="translate(319 1602.803)">
      <g id="Group_703" data-name="Group 703" transform="translate(18.607 0)">
        <path id="Path_604" data-name="Path 604" d="M254.107,384.327H251.2a1.477,1.477,0,0,1,0-2.954h2.907a1.477,1.477,0,0,1,0,2.954Z" transform="translate(-224.19 -364.714)" fill="#f6921e"/>
        <path id="Path_605" data-name="Path 605" d="M239.812,373.437a1.479,1.479,0,0,0,1.478-1.478v-2.907a1.478,1.478,0,0,0-2.957,0v2.907a1.48,1.48,0,0,0,1.479,1.478Z" transform="translate(-226.553 -367.575)" fill="#f6921e"/>
        <path id="Path_606" data-name="Path 606" d="M249.922,394.437a1.477,1.477,0,0,0,1.043-2.522l-2.056-2.055a1.477,1.477,0,1,0-2.09,2.089L248.878,394a1.472,1.472,0,0,0,1.044.432Z" transform="translate(-224.882 -363.043)" fill="#f6921e"/>
        <path id="Path_607" data-name="Path 607" d="M232.112,376.627a1.477,1.477,0,0,0,1.044-2.521l-2.059-2.056a1.477,1.477,0,1,0-2.088,2.089l2.055,2.056a1.476,1.476,0,0,0,1.047.432Z" transform="translate(-228.576 -366.737)" fill="#f6921e"/>
        <path id="Path_608" data-name="Path 608" d="M240.7,374.24a9.667,9.667,0,0,0-6.638,2.644,9.6,9.6,0,0,1,7.817,8.879,6.123,6.123,0,0,1,4.563,6.039A9.717,9.717,0,0,0,240.7,374.24Z" transform="translate(-227.439 -366.193)" fill="#f6921e"/>
        <path id="Path_609" data-name="Path 609" d="M247.864,376.626a1.471,1.471,0,0,0,1.046-.431l2.056-2.056a1.477,1.477,0,1,0-2.088-2.09l-2.059,2.055a1.477,1.477,0,0,0,1.044,2.522Z" transform="translate(-224.882 -366.737)" fill="#f6921e"/>
      </g>
      <path id="Path_610" data-name="Path 610" d="M245.045,386.1c-.028-4.914-3.484-8.888-9.189-8.888a11.059,11.059,0,0,0-8.506,3.668,6.128,6.128,0,0,0-2.6-.574,5.606,5.606,0,0,0-5.792,5.4c0,.082,0,.167.007.25-2.9.1-5.8,1.62-5.8,6.057,0,2.847,2.259,4.815,5.725,4.815h25.035c3.721,0,5.654-2.438,5.654-5.444C249.58,388.81,248.266,386.742,245.045,386.1Z" transform="translate(-213.165 -365.577)" fill="#d3e1e6"/>
    </g>
  </g>
</svg>
