<svg xmlns="http://www.w3.org/2000/svg" width="50" height="50" viewBox="0 0 50 50">
  <g id="_02n" data-name="02n" transform="translate(-663 -1599.5)">
    <rect id="Rectangle_11398" data-name="Rectangle 11398" width="50" height="50" transform="translate(663 1599.5)" fill="#fff" opacity="0"/>
    <g id="Group_53115" data-name="Group 53115" transform="translate(663 1603.5)">
      <path id="Path_574" data-name="Path 574" d="M283.112,386.471A13.952,13.952,0,0,1,297.336,368.6a2.028,2.028,0,0,1,1.739,2.819c-.02.052-2.332,5.667.106,9.365a5.9,5.9,0,0,0,.627.786,16.416,16.416,0,0,0-9.618,4.575,9.916,9.916,0,0,0-7.08.331Z" transform="translate(-271.142 -368.57)" fill="#2a6591"/>
      <path id="Path_575" data-name="Path 575" d="M319.457,389.477c-.035-6.747-4.788-12.2-12.615-12.2a15.181,15.181,0,0,0-11.685,5.038,8.389,8.389,0,0,0-3.566-.791,7.7,7.7,0,0,0-7.95,7.417c0,.115.007.23.01.344-3.982.133-7.967,2.225-7.967,8.318,0,3.908,3.1,6.612,7.858,6.612H317.92c5.108,0,7.765-3.348,7.765-7.476C325.685,393.2,323.881,390.366,319.457,389.477Z" transform="translate(-275.685 -362.788)" fill="#d3e1e6"/>
    </g>
  </g>
</svg>
