<svg xmlns="http://www.w3.org/2000/svg" width="50" height="50" viewBox="0 0 50 50">
  <g id="_04d" data-name="04d" transform="translate(-319 -1813.5)">
    <rect id="Rectangle_11391" data-name="Rectangle 11391" width="50" height="50" transform="translate(319 1813.5)" fill="#fff" opacity="0"/>
    <g id="Group_53122" data-name="Group 53122" transform="translate(319 1828.148)">
      <path id="Path_602" data-name="Path 602" d="M458.588,392.234c0,3.173-2.047,5.746-5.971,5.746H426.2c-3.659,0-6.041-2.077-6.041-5.081,0-4.682,3.063-6.292,6.12-6.393,0-.088-.008-.177-.008-.266a5.918,5.918,0,0,1,6.114-5.7,6.469,6.469,0,0,1,2.74.606,11.668,11.668,0,0,1,8.977-3.872c6.021,0,9.67,4.193,9.7,9.38C457.2,387.336,458.588,389.519,458.588,392.234Z" transform="translate(-420.157 -377.275)" fill="#d3e1e6"/>
      <path id="Path_603" data-name="Path 603" d="M459.176,385.551a7.351,7.351,0,0,0-7.785-7.529,9.46,9.46,0,0,0-5.656,1.737,10.543,10.543,0,0,1,2.159,5.683,6.489,6.489,0,0,1,4.834,6.584,7.761,7.761,0,0,1-.449,2.614h5.948a4.414,4.414,0,0,0,4.792-4.612A4.275,4.275,0,0,0,459.176,385.551Z" transform="translate(-413.018 -377.067)" fill="#d3e1e6"/>
    </g>
  </g>
</svg>
