<svg xmlns="http://www.w3.org/2000/svg" width="50" height="50" viewBox="0 0 50 50">
  <g id="_10d" data-name="10d" transform="translate(-319 -2033.5)">
    <rect id="Rectangle_11393" data-name="Rectangle 11393" width="50" height="50" transform="translate(319 2033.5)" fill="#fff" opacity="0"/>
    <g id="Group_53124" data-name="Group 53124" transform="translate(319 2035.5)">
      <g id="Group_705" data-name="Group 705" transform="translate(18.608 0)">
        <path id="Path_611" data-name="Path 611" d="M329.768,276.673H326.86a1.477,1.477,0,0,1,0-2.955h2.908a1.477,1.477,0,0,1,0,2.955Z" transform="translate(-299.853 -257.059)" fill="#f6921e"/>
        <path id="Path_612" data-name="Path 612" d="M314.237,264.286a1.48,1.48,0,0,0,1.479-1.478V259.9a1.48,1.48,0,0,0-2.959,0v2.907a1.48,1.48,0,0,0,1.48,1.478Z" transform="translate(-300.979 -258.423)" fill="#f6921e"/>
        <path id="Path_613" data-name="Path 613" d="M325.223,287.656a1.477,1.477,0,0,0,1.042-2.522l-2.057-2.054a1.477,1.477,0,0,0-2.089,2.088l2.06,2.056a1.466,1.466,0,0,0,1.045.432Z" transform="translate(-300.183 -256.263)" fill="#f6921e"/>
        <path id="Path_614" data-name="Path 614" d="M305.477,267.913a1.476,1.476,0,0,0,1.045-2.52l-2.059-2.057a1.476,1.476,0,0,0-2.087,2.089l2.054,2.056a1.475,1.475,0,0,0,1.047.432Z" transform="translate(-301.943 -258.024)" fill="#f6921e"/>
        <path id="Path_615" data-name="Path 615" d="M314.659,265.812a9.655,9.655,0,0,0-6.637,2.644,9.593,9.593,0,0,1,7.816,8.878,6.126,6.126,0,0,1,4.564,6.039,9.717,9.717,0,0,0-5.742-17.562Z" transform="translate(-301.401 -257.764)" fill="#f6921e"/>
        <path id="Path_616" data-name="Path 616" d="M323.163,267.913a1.461,1.461,0,0,0,1.044-.431l2.057-2.056a1.477,1.477,0,1,0-2.087-2.09l-2.06,2.056a1.477,1.477,0,0,0,1.045,2.521Z" transform="translate(-300.183 -258.024)" fill="#f6921e"/>
      </g>
      <path id="Path_617" data-name="Path 617" d="M316.738,277.99c-.028-4.914-3.484-8.888-9.19-8.888a11.054,11.054,0,0,0-8.5,3.668,6.125,6.125,0,0,0-2.6-.574,5.606,5.606,0,0,0-5.792,5.4c0,.084,0,.168.007.25-2.9.1-5.8,1.621-5.8,6.057,0,2.847,2.26,4.815,5.727,4.815h25.034c3.721,0,5.654-2.439,5.654-5.444C321.273,280.7,319.96,278.634,316.738,277.99Z" transform="translate(-284.858 -257.471)" fill="#d3e1e6"/>
      <g id="Group_53129" data-name="Group 53129" transform="translate(8.144 33.115)">
        <g id="Group_694" data-name="Group 694">
          <path id="Path_595" data-name="Path 595" d="M301.716,580.272a1.585,1.585,0,0,1-.605-.123,1.562,1.562,0,0,1-.831-2.045l1.444-3.417A1.559,1.559,0,0,1,304.6,575.9l-1.444,3.419a1.56,1.56,0,0,1-1.436.953Z" transform="translate(-300.157 -573.733)" fill="#00adee"/>
        </g>
        <g id="Group_695" data-name="Group 695" transform="translate(8.246)">
          <path id="Path_596" data-name="Path 596" d="M308.163,580.272a1.562,1.562,0,0,1-1.436-2.168l1.442-3.417a1.559,1.559,0,1,1,2.873,1.213l-1.442,3.419a1.56,1.56,0,0,1-1.436.953Z" transform="translate(-306.604 -573.733)" fill="#00adee"/>
        </g>
        <g id="Group_696" data-name="Group 696" transform="translate(16.493)">
          <path id="Path_597" data-name="Path 597" d="M314.61,580.272a1.562,1.562,0,0,1-1.436-2.168l1.442-3.417a1.559,1.559,0,1,1,2.873,1.213l-1.44,3.419a1.563,1.563,0,0,1-1.438.953Z" transform="translate(-313.051 -573.733)" fill="#00adee"/>
        </g>
        <g id="Group_697" data-name="Group 697" transform="translate(2.183 6.701)">
          <path id="Path_598" data-name="Path 598" d="M303.421,585.508a1.558,1.558,0,0,1-1.434-2.164l1.442-3.42a1.559,1.559,0,1,1,2.873,1.211l-1.442,3.42a1.561,1.561,0,0,1-1.439.953Z" transform="translate(-301.863 -578.972)" fill="#00adee"/>
        </g>
        <g id="Group_698" data-name="Group 698" transform="translate(10.43 6.701)">
          <path id="Path_599" data-name="Path 599" d="M309.868,585.508a1.535,1.535,0,0,1-.6-.123,1.557,1.557,0,0,1-.83-2.042l1.442-3.42a1.559,1.559,0,1,1,2.873,1.211l-1.442,3.42a1.561,1.561,0,0,1-1.439.953Z" transform="translate(-308.311 -578.972)" fill="#00adee"/>
        </g>
      </g>
    </g>
  </g>
</svg>
