<svg xmlns="http://www.w3.org/2000/svg" width="50" height="50" viewBox="0 0 50 50">
  <g id="_10n" data-name="10n" transform="translate(-659 -2042.5)">
    <rect id="Rectangle_11403" data-name="Rectangle 11403" width="50" height="50" transform="translate(659 2042.5)" fill="#fff" opacity="0"/>
    <g id="Group_53139" data-name="Group 53139" transform="translate(1 9)">
      <path id="Path_617" data-name="Path 617" d="M319.243,278.72c-.031-5.318-3.758-9.618-9.912-9.618a11.9,11.9,0,0,0-9.172,3.97,6.587,6.587,0,0,0-2.8-.621,6.055,6.055,0,0,0-6.247,5.845c0,.091,0,.182.007.271-3.128.1-6.258,1.754-6.258,6.555,0,3.081,2.438,5.211,6.177,5.211h27c4.013,0,6.1-2.639,6.1-5.891C324.134,281.658,322.719,279.418,319.243,278.72Z" transform="translate(378.142 1776.914)" fill="#d3e1e6"/>
      <g id="Group_53129" data-name="Group 53129" transform="translate(671.748 2069.174)">
        <g id="Group_694" data-name="Group 694">
          <path id="Path_595" data-name="Path 595" d="M301.845,580.809a1.715,1.715,0,0,1-.655-.133,1.69,1.69,0,0,1-.9-2.213l1.563-3.7a1.687,1.687,0,0,1,3.109,1.312l-1.563,3.7a1.688,1.688,0,0,1-1.555,1.031Z" transform="translate(-300.157 -573.733)" fill="#00adee"/>
        </g>
        <g id="Group_695" data-name="Group 695" transform="translate(8.924)">
          <path id="Path_596" data-name="Path 596" d="M308.292,580.809a1.69,1.69,0,0,1-1.555-2.346l1.56-3.7a1.687,1.687,0,1,1,3.109,1.312l-1.56,3.7a1.688,1.688,0,0,1-1.555,1.031Z" transform="translate(-306.604 -573.733)" fill="#00adee"/>
        </g>
        <g id="Group_696" data-name="Group 696" transform="translate(17.85)">
          <path id="Path_597" data-name="Path 597" d="M314.738,580.809a1.69,1.69,0,0,1-1.555-2.346l1.56-3.7a1.687,1.687,0,1,1,3.109,1.312l-1.559,3.7a1.691,1.691,0,0,1-1.556,1.031Z" transform="translate(-313.051 -573.733)" fill="#00adee"/>
        </g>
        <g id="Group_697" data-name="Group 697" transform="translate(2.363 7.252)">
          <path id="Path_598" data-name="Path 598" d="M303.549,586.046A1.686,1.686,0,0,1,302,583.7l1.56-3.7a1.687,1.687,0,1,1,3.109,1.311l-1.56,3.7a1.69,1.69,0,0,1-1.557,1.031Z" transform="translate(-301.863 -578.972)" fill="#00adee"/>
        </g>
        <g id="Group_698" data-name="Group 698" transform="translate(11.287 7.252)">
          <path id="Path_599" data-name="Path 599" d="M310,586.046a1.663,1.663,0,0,1-.653-.133,1.685,1.685,0,0,1-.9-2.209L310,580a1.687,1.687,0,1,1,3.109,1.311l-1.56,3.7A1.69,1.69,0,0,1,310,586.046Z" transform="translate(-308.311 -578.972)" fill="#00adee"/>
        </g>
      </g>
      <g id="Group_53138" data-name="Group 53138" transform="translate(663 2033.5)">
        <path id="Path_574" data-name="Path 574" d="M283,383.161A11.372,11.372,0,0,1,294.6,368.59a1.653,1.653,0,0,1,1.418,2.3c-.016.042-1.9,4.619.087,7.633a4.812,4.812,0,0,0,.511.64,13.381,13.381,0,0,0-7.839,3.729,8.083,8.083,0,0,0-5.771.27Z" transform="translate(-273.293 -368.57)" fill="#2a6591"/>
        <path id="Path_575" data-name="Path 575" d="M311.247,387.221c-.028-5.5-3.89-9.946-10.249-9.946a12.316,12.316,0,0,0-9.493,4.106,6.8,6.8,0,0,0-2.9-.644,6.262,6.262,0,0,0-6.459,6.046c0,.094.005.187.008.281-3.235.109-6.472,1.814-6.472,6.78,0,3.185,2.519,5.389,6.384,5.389H310c4.15,0,6.309-2.729,6.309-6.093C316.307,390.259,314.841,387.945,311.247,387.221Z" transform="translate(-275.685 -365.63)" fill="#d3e1e6"/>
      </g>
    </g>
  </g>
</svg>
