<svg xmlns="http://www.w3.org/2000/svg" width="50" height="50" viewBox="0 0 50 50">
  <g id="_11n" data-name="11n" transform="translate(-661 -2147.5)">
    <rect id="Rectangle_11404" data-name="Rectangle 11404" width="50" height="50" transform="translate(661 2147.5)" fill="#fff" opacity="0"/>
    <g id="Group_53136" data-name="Group 53136" transform="translate(661 2151.5)">
      <g id="Group_628" data-name="Group 628" transform="translate(15.206 15.468)">
        <g id="Group_626" data-name="Group 626" transform="translate(9.562 2.899)">
          <path id="Path_542" data-name="Path 542" d="M201.5,449.85a.492.492,0,0,0-.433-.255h-3.919l3.718-6.58a.475.475,0,0,0,0-.488.49.49,0,0,0-.423-.245H194.2a.5.5,0,0,0-.474.349l-3.355,11.177a.49.49,0,0,0,.473.634h3.08l-2.971,10.549a.491.491,0,0,0,.273.581.451.451,0,0,0,.2.042.5.5,0,0,0,.416-.226l9.637-15.037A.484.484,0,0,0,201.5,449.85Z" transform="translate(-190.347 -442.283)" fill="#f05a28"/>
        </g>
        <g id="Group_627" data-name="Group 627">
          <path id="Path_543" data-name="Path 543" d="M193.191,446.367a.381.381,0,0,0-.333-.195h-3.022L192.7,441.1a.363.363,0,0,0,0-.376.381.381,0,0,0-.326-.186h-4.806a.371.371,0,0,0-.361.27l-2.591,8.607a.382.382,0,0,0,.062.336.374.374,0,0,0,.3.151h2.376l-2.288,8.126a.38.38,0,0,0,.208.449.4.4,0,0,0,.156.032.382.382,0,0,0,.321-.175l7.421-11.583A.378.378,0,0,0,193.191,446.367Z" transform="translate(-184.601 -440.541)" fill="#f05a28"/>
        </g>
      </g>
      <path id="Path_544" data-name="Path 544" d="M219.237,443.449c-.04-6.75-4.788-12.2-12.618-12.2a15.183,15.183,0,0,0-11.682,5.034,8.446,8.446,0,0,0-3.563-.786,7.7,7.7,0,0,0-7.953,7.417c0,.113,0,.228.01.343-3.982.131-7.966,2.227-7.966,8.318,0,3.908,3.1,6.612,7.858,6.612H191.1l.123-.441h-.178a2.042,2.042,0,0,1-1.957-2.631l2.588-8.605a2.03,2.03,0,0,1,1.957-1.456h4.806a2.037,2.037,0,0,1,1.746.984,2.011,2.011,0,0,1,.03,2.062l-1.459,2.586h.168a2.018,2.018,0,0,1,1.974,2.51l1.118-3.728a2.155,2.155,0,0,1,2.064-1.514h6.237a2.156,2.156,0,0,1,1.876,3.215l-2.317,4.1h1.068a2.136,2.136,0,0,1,2,2.922h4.75c5.109,0,7.768-3.347,7.768-7.477C225.464,447.174,223.66,444.335,219.237,443.449Z" transform="translate(-175.464 -431.246)" fill="#d3e1e6"/>
    </g>
  </g>
</svg>
